<mxfile host="app.diagrams.net" agent="Mozilla/5.0 (Windows NT 10.0; Win64; x64) AppleWebKit/537.36 (KHTML, like Gecko) Chrome/130.0.0.0 Safari/537.36" version="24.8.3">
  <diagram name="Page-1" id="dSvuV1CNV-9eOFvfghRx">
    <mxGraphModel dx="1838" dy="1127" grid="1" gridSize="10" guides="1" tooltips="1" connect="1" arrows="1" fold="1" page="1" pageScale="1" pageWidth="850" pageHeight="1100" math="0" shadow="0">
      <root>
        <mxCell id="0" />
        <mxCell id="1" parent="0" />
        <mxCell id="y66Isht47EPB-E9qdgSM-7" value="" style="swimlane;fontStyle=1;childLayout=stackLayout;horizontal=1;startSize=0;horizontalStack=0;resizeParent=1;resizeParentMax=0;resizeLast=0;collapsible=0;marginBottom=0;whiteSpace=wrap;html=1;strokeColor=none;fillColor=none;strokeWidth=2;labelPadding=0;labelBorderColor=none;fontSize=13;shadow=0;perimeterSpacing=0;swimlaneLine=0;" vertex="1" parent="1">
          <mxGeometry x="60" y="280" width="240" height="230" as="geometry" />
        </mxCell>
        <mxCell id="y66Isht47EPB-E9qdgSM-8" value="Enrollment" style="text;strokeColor=default;fillColor=#204f79;align=left;verticalAlign=middle;spacingLeft=10;spacingRight=10;overflow=hidden;points=[[0,0.5],[1,0.5]];portConstraint=eastwest;rotatable=0;whiteSpace=wrap;html=1;shape=mxgraph.bootstrap.topButton;rSize=5;fontColor=#ffffff;labelBackgroundColor=none;fontSize=15;fontStyle=1;fontFamily=Helvetica;strokeWidth=2;labelPadding=0;labelBorderColor=none;shadow=0;perimeterSpacing=0;swimlaneLine=0;" vertex="1" parent="y66Isht47EPB-E9qdgSM-7">
          <mxGeometry width="240" height="30" as="geometry" />
        </mxCell>
        <mxCell id="y66Isht47EPB-E9qdgSM-9" value="date: String&lt;div style=&quot;font-size: 13px;&quot;&gt;student: Student&lt;/div&gt;&lt;div style=&quot;font-size: 13px;&quot;&gt;unit: Unit&lt;/div&gt;" style="text;strokeColor=default;fillColor=#FFFFFF;align=left;verticalAlign=middle;spacingLeft=10;spacingRight=10;overflow=hidden;points=[[0,0.5],[1,0.5]];portConstraint=eastwest;rotatable=0;whiteSpace=wrap;html=1;rSize=5;fontColor=#000000;strokeWidth=2;labelPadding=0;labelBorderColor=none;fontSize=13;fontStyle=1;shadow=0;perimeterSpacing=0;swimlaneLine=0;" vertex="1" parent="y66Isht47EPB-E9qdgSM-7">
          <mxGeometry y="30" width="240" height="60" as="geometry" />
        </mxCell>
        <mxCell id="y66Isht47EPB-E9qdgSM-12" value="Enrolment()&lt;div style=&quot;font-size: 13px;&quot;&gt;Enrolment(String, Student, Unit)&lt;/div&gt;&lt;div style=&quot;font-size: 13px;&quot;&gt;display: String&lt;/div&gt;&lt;div style=&quot;font-size: 13px;&quot;&gt;getData(): String&lt;/div&gt;&lt;div style=&quot;font-size: 13px;&quot;&gt;getStudent(): Student&lt;/div&gt;&lt;div style=&quot;font-size: 13px;&quot;&gt;setDate(String)&lt;/div&gt;&lt;div style=&quot;font-size: 13px;&quot;&gt;setStudent(Student)&lt;/div&gt;&lt;div style=&quot;font-size: 13px;&quot;&gt;setUnit(Unit)&lt;/div&gt;" style="text;strokeColor=default;fillColor=#FFFFFF;align=left;verticalAlign=middle;spacingLeft=10;spacingRight=10;overflow=hidden;points=[[0,0.5],[1,0.5]];portConstraint=eastwest;rotatable=0;whiteSpace=wrap;html=1;shape=mxgraph.bootstrap.bottomButton;rSize=5;fontColor=#000000;strokeWidth=2;labelPadding=0;labelBorderColor=none;fontSize=13;fontStyle=1;shadow=0;perimeterSpacing=0;swimlaneLine=0;" vertex="1" parent="y66Isht47EPB-E9qdgSM-7">
          <mxGeometry y="90" width="240" height="140" as="geometry" />
        </mxCell>
        <mxCell id="y66Isht47EPB-E9qdgSM-31" value="" style="swimlane;fontStyle=1;childLayout=stackLayout;horizontal=1;startSize=0;horizontalStack=0;resizeParent=1;resizeParentMax=0;resizeLast=0;collapsible=0;marginBottom=0;whiteSpace=wrap;html=1;strokeColor=none;fillColor=none;strokeWidth=2;labelPadding=0;labelBorderColor=none;fontSize=13;shadow=0;perimeterSpacing=0;swimlaneLine=0;" vertex="1" parent="1">
          <mxGeometry x="420" y="160" width="240" height="230" as="geometry" />
        </mxCell>
        <mxCell id="y66Isht47EPB-E9qdgSM-32" value="Student" style="text;strokeColor=default;fillColor=#2571d4;align=left;verticalAlign=middle;spacingLeft=10;spacingRight=10;overflow=hidden;points=[[0,0.5],[1,0.5]];portConstraint=eastwest;rotatable=0;whiteSpace=wrap;html=1;shape=mxgraph.bootstrap.topButton;rSize=5;fontColor=#ffffff;labelBackgroundColor=none;fontSize=15;fontStyle=1;fontFamily=Helvetica;strokeWidth=2;labelPadding=0;labelBorderColor=none;shadow=0;perimeterSpacing=0;swimlaneLine=0;" vertex="1" parent="y66Isht47EPB-E9qdgSM-31">
          <mxGeometry width="240" height="30" as="geometry" />
        </mxCell>
        <mxCell id="y66Isht47EPB-E9qdgSM-33" value="date: String&lt;div style=&quot;font-size: 13px;&quot;&gt;student: Student&lt;/div&gt;&lt;div style=&quot;font-size: 13px;&quot;&gt;unit: Unit&lt;/div&gt;" style="text;strokeColor=default;fillColor=#FFFFFF;align=left;verticalAlign=middle;spacingLeft=10;spacingRight=10;overflow=hidden;points=[[0,0.5],[1,0.5]];portConstraint=eastwest;rotatable=0;whiteSpace=wrap;html=1;rSize=5;fontColor=#000000;strokeWidth=2;labelPadding=0;labelBorderColor=none;fontSize=13;fontStyle=1;shadow=0;perimeterSpacing=0;swimlaneLine=0;" vertex="1" parent="y66Isht47EPB-E9qdgSM-31">
          <mxGeometry y="30" width="240" height="60" as="geometry" />
        </mxCell>
        <mxCell id="y66Isht47EPB-E9qdgSM-34" value="Enrolment()&lt;div style=&quot;font-size: 13px;&quot;&gt;Enrolment(String, Student, Unit)&lt;/div&gt;&lt;div style=&quot;font-size: 13px;&quot;&gt;display: String&lt;/div&gt;&lt;div style=&quot;font-size: 13px;&quot;&gt;getData(): String&lt;/div&gt;&lt;div style=&quot;font-size: 13px;&quot;&gt;getStudent(): Student&lt;/div&gt;&lt;div style=&quot;font-size: 13px;&quot;&gt;setDate(String)&lt;/div&gt;&lt;div style=&quot;font-size: 13px;&quot;&gt;setStudent(Student)&lt;/div&gt;&lt;div style=&quot;font-size: 13px;&quot;&gt;setUnit(Unit)&lt;/div&gt;" style="text;strokeColor=default;fillColor=#FFFFFF;align=left;verticalAlign=middle;spacingLeft=10;spacingRight=10;overflow=hidden;points=[[0,0.5],[1,0.5]];portConstraint=eastwest;rotatable=0;whiteSpace=wrap;html=1;shape=mxgraph.bootstrap.bottomButton;rSize=5;fontColor=#000000;strokeWidth=2;labelPadding=0;labelBorderColor=none;fontSize=13;fontStyle=1;shadow=0;perimeterSpacing=0;swimlaneLine=0;" vertex="1" parent="y66Isht47EPB-E9qdgSM-31">
          <mxGeometry y="90" width="240" height="140" as="geometry" />
        </mxCell>
        <mxCell id="y66Isht47EPB-E9qdgSM-35" value="" style="swimlane;fontStyle=1;childLayout=stackLayout;horizontal=1;startSize=0;horizontalStack=0;resizeParent=1;resizeParentMax=0;resizeLast=0;collapsible=0;marginBottom=0;whiteSpace=wrap;html=1;strokeColor=none;fillColor=none;strokeWidth=2;labelPadding=0;labelBorderColor=none;fontSize=13;shadow=0;perimeterSpacing=0;swimlaneLine=0;" vertex="1" parent="1">
          <mxGeometry x="420" y="465" width="240" height="230" as="geometry" />
        </mxCell>
        <mxCell id="y66Isht47EPB-E9qdgSM-36" value="Student" style="text;strokeColor=default;fillColor=#3399FF;align=left;verticalAlign=middle;spacingLeft=10;spacingRight=10;overflow=hidden;points=[[0,0.5],[1,0.5]];portConstraint=eastwest;rotatable=0;whiteSpace=wrap;html=1;shape=mxgraph.bootstrap.topButton;rSize=5;fontColor=#ffffff;labelBackgroundColor=none;fontSize=15;fontStyle=1;fontFamily=Helvetica;strokeWidth=2;labelPadding=0;labelBorderColor=none;shadow=0;perimeterSpacing=0;swimlaneLine=0;" vertex="1" parent="y66Isht47EPB-E9qdgSM-35">
          <mxGeometry width="240" height="30" as="geometry" />
        </mxCell>
        <mxCell id="y66Isht47EPB-E9qdgSM-37" value="date: String&lt;div style=&quot;font-size: 13px;&quot;&gt;student: Student&lt;/div&gt;&lt;div style=&quot;font-size: 13px;&quot;&gt;unit: Unit&lt;/div&gt;" style="text;strokeColor=default;fillColor=#FFFFFF;align=left;verticalAlign=middle;spacingLeft=10;spacingRight=10;overflow=hidden;points=[[0,0.5],[1,0.5]];portConstraint=eastwest;rotatable=0;whiteSpace=wrap;html=1;rSize=5;fontColor=#000000;strokeWidth=2;labelPadding=0;labelBorderColor=none;fontSize=13;fontStyle=1;shadow=0;perimeterSpacing=0;swimlaneLine=0;" vertex="1" parent="y66Isht47EPB-E9qdgSM-35">
          <mxGeometry y="30" width="240" height="60" as="geometry" />
        </mxCell>
        <mxCell id="y66Isht47EPB-E9qdgSM-38" value="Enrolment()&lt;div style=&quot;font-size: 13px;&quot;&gt;Enrolment(String, Student, Unit)&lt;/div&gt;&lt;div style=&quot;font-size: 13px;&quot;&gt;display: String&lt;/div&gt;&lt;div style=&quot;font-size: 13px;&quot;&gt;getData(): String&lt;/div&gt;&lt;div style=&quot;font-size: 13px;&quot;&gt;getStudent(): Student&lt;/div&gt;&lt;div style=&quot;font-size: 13px;&quot;&gt;setDate(String)&lt;/div&gt;&lt;div style=&quot;font-size: 13px;&quot;&gt;setStudent(Student)&lt;/div&gt;&lt;div style=&quot;font-size: 13px;&quot;&gt;setUnit(Unit)&lt;/div&gt;" style="text;strokeColor=default;fillColor=#FFFFFF;align=left;verticalAlign=middle;spacingLeft=10;spacingRight=10;overflow=hidden;points=[[0,0.5],[1,0.5]];portConstraint=eastwest;rotatable=0;whiteSpace=wrap;html=1;shape=mxgraph.bootstrap.bottomButton;rSize=5;fontColor=#000000;strokeWidth=2;labelPadding=0;labelBorderColor=none;fontSize=13;fontStyle=1;shadow=0;perimeterSpacing=0;swimlaneLine=0;" vertex="1" parent="y66Isht47EPB-E9qdgSM-35">
          <mxGeometry y="90" width="240" height="140" as="geometry" />
        </mxCell>
      </root>
    </mxGraphModel>
  </diagram>
</mxfile>
